<?xml version="1.0" encoding="UTF-8"?>
<svg id="Capa_1" data-name="Capa 1" xmlns="http://www.w3.org/2000/svg" viewBox="0 0 114.93 116.67">
  <path d="m0,57.46C0,25.73,25.73,0,57.46,0s57.46,25.73,57.46,57.46-25.73,57.46-57.46,57.46S0,89.2,0,57.46" fill="#fff"/>
  <path d="m10.74,26.05c4.22,4.2,10.01,10.89,14.72,20.33,5.62,11.27,6.97,20.98,8.13,29.31,1.11,7.99,1.91,19.45.15,33.21-.05.38.18.84.52,1.01,3.18,1.62,8.47,3.16,11.81,3.79,5.2.98,9.03,1.12,12.19,1.08-.57-16.76-3.18-30.41-5.6-40.08-3.73-14.86-8.48-26.06-15.7-35.76-4.84-6.5-9.64-10.79-16.13-12.48-4.09-1.07-7.7-.81-10.1-.42" fill="#1d1d1b" stroke="#1d1d1b" stroke-miterlimit="10" stroke-width=".27"/>
  <circle cx="67.71" cy="42.93" r="3.72" fill="#1d1d1b" stroke="#1d1d1b" stroke-miterlimit="10" stroke-width=".27"/>
  <circle cx="77.83" cy="44.61" r="3.72" fill="#1d1d1b" stroke="#1d1d1b" stroke-miterlimit="10" stroke-width=".27"/>
  <circle cx="86.25" cy="50.64" r="3.72" fill="#1d1d1b" stroke="#1d1d1b" stroke-miterlimit="10" stroke-width=".27"/>
  <circle cx="82.23" cy="60.42" r="4.4" fill="#1d1d1b" stroke="#1d1d1b" stroke-miterlimit="10" stroke-width=".27"/>
  <circle cx="73.82" cy="54.36" r="4.4" fill="#1d1d1b" stroke="#1d1d1b" stroke-miterlimit="10" stroke-width=".27"/>
  <circle cx="69.23" cy="65.25" r="4.51" fill="#1d1d1b" stroke="#1d1d1b" stroke-miterlimit="10" stroke-width=".27"/>
  <path d="m63.65,63.52c0,2.11-1.45,3.89-3.42,4.38-.14-3.41-.52-6.33-1.03-8.89,2.46.04,4.44,2.04,4.44,4.51Z" fill="#1d1d1b" stroke="#1d1d1b" stroke-miterlimit="10" stroke-width=".27"/>
  <circle cx="77.44" cy="71.21" r="4.51" fill="#1d1d1b" stroke="#1d1d1b" stroke-miterlimit="10" stroke-width=".27"/>
  <circle cx="64.72" cy="75.87" r="4.66" fill="#1d1d1b" stroke="#1d1d1b" stroke-miterlimit="10" stroke-width=".27"/>
  <circle cx="63.65" cy="52.46" r="4.4" fill="#1d1d1b" stroke="#1d1d1b" stroke-miterlimit="10" stroke-width=".27"/>
  <circle cx="71.42" cy="34.43" r="3.2" fill="#1d1d1b" stroke="#1d1d1b" stroke-miterlimit="10" stroke-width=".27"/>
  <circle cx="81.55" cy="36.01" r="3.2" fill="#1d1d1b" stroke="#1d1d1b" stroke-miterlimit="10" stroke-width=".27"/>
  <circle cx="89.45" cy="42.42" r="3.2" fill="#1d1d1b" stroke="#1d1d1b" stroke-miterlimit="10" stroke-width=".27"/>
  <circle cx="75.61" cy="27.42" r="2.95" fill="#1d1d1b" stroke="#1d1d1b" stroke-miterlimit="10" stroke-width=".27"/>
  <circle cx="84.75" cy="28.79" r="2.95" fill="#1d1d1b" stroke="#1d1d1b" stroke-miterlimit="10" stroke-width=".27"/>
  <circle cx="91.11" cy="27.42" r="1.99" fill="#1d1d1b" stroke="#1d1d1b" stroke-miterlimit="10" stroke-width=".27"/>
  <circle cx="87.07" cy="22.78" r="1.99" fill="#1d1d1b" stroke="#1d1d1b" stroke-miterlimit="10" stroke-width=".27"/>
  <circle cx="80.17" cy="23.44" r="1.99" fill="#1d1d1b" stroke="#1d1d1b" stroke-miterlimit="10" stroke-width=".27"/>
  <circle cx="91.62" cy="34.43" r="2.95" fill="#1d1d1b" stroke="#1d1d1b" stroke-miterlimit="10" stroke-width=".27"/>
  <path d="m71.17,101.21c-2.2,3.02-4.39,6.05-6.59,9.07,3.8-2.34,7.15-3.94,9.63-5,3.63-1.55,5.96-2.53,9.25-2.99,3.81-.53,7-.11,9.07.33-.77-.71-2.08-1.76-3.93-2.52-3.82-1.59-7.52-.97-11.64-.28-1.42.24-3.42.65-5.8,1.4Z" fill="#1d1d1b" stroke="#1d1d1b" stroke-miterlimit="10" stroke-width=".27"/>
  <path d="m47.24,45.52s-.05.03-.03.06c1.06,1.75,2.56,4.73,3.19,8.7.55,3.46.22,6.37-.14,8.26,0,0,0,.02,0,.02,1.03,2.06,2.03,4.33,2.94,6.79,2.92,7.93,3.91,15.27,4.13,21.12,0,.05.07.04.08,0,1.08-5.45,1.5-10.05,1.69-13.41.52-9.53-.57-15.99-2.03-20.96-1.63-5.53-3.46-8.31-6.24-9.68-1.36-.67-2.67-.86-3.58-.91Z" fill="#1d1d1b" stroke="#1d1d1b" stroke-miterlimit="10" stroke-width=".27"/>
  <path d="m59.11,114.16c2.44-3.03,5.96-7.36,10.31-12.58,0,0,4.89-5.88,13.71-12.65,1.05-.81,3.03-2.28,5.43-1.96,1.6.21,2.78,1.13,3.47,1.79-.13-1.42-.57-4.06-2.42-6.59-3.55-4.85-9.4-5.36-10.76-5.43-5.98-.32-10.42,3.21-14.51,6.45-3.32,2.63-5.59,5.35-7.01,7.29l1.79,23.7Z" fill="#1d1d1b" stroke="#1d1d1b" stroke-miterlimit="10" stroke-width=".27"/>
</svg>